<?xml version="1.0" standalone="no"?>
<!DOCTYPE svg PUBLIC "-//W3C//DTD SVG 20010904//EN"
 "http://www.w3.org/TR/2001/REC-SVG-20010904/DTD/svg10.dtd">
<svg version="1.0" xmlns="http://www.w3.org/2000/svg"
 width="675.000000pt" height="675.000000pt" viewBox="0 0 675.000000 675.000000"
 preserveAspectRatio="xMidYMid meet">
<metadata>
Created by potrace 1.10, written by Peter Selinger 2001-2011
</metadata>
<g transform="translate(0.000000,675.000000) scale(0.100000,-0.100000)"
fill="#000000" stroke="none">
<path d="M3090 6579 c-36 -5 -103 -13 -150 -19 -136 -15 -204 -28 -360 -69
-25 -7 -63 -16 -85 -21 -42 -8 -87 -23 -143 -46 -18 -8 -39 -14 -47 -14 -14 0
-66 -20 -118 -46 -16 -8 -33 -14 -38 -14 -18 0 -238 -106 -344 -165 -33 -19
-67 -38 -75 -42 -8 -4 -34 -20 -56 -35 -23 -15 -47 -28 -53 -28 -6 0 -11 -4
-11 -9 0 -10 -38 -34 -72 -47 -10 -3 -18 -10 -18 -14 0 -5 -26 -25 -57 -46
-32 -21 -62 -43 -68 -49 -5 -7 -39 -34 -75 -61 -81 -61 -344 -324 -426 -424
-84 -104 -184 -238 -184 -245 0 -4 -13 -24 -28 -44 -16 -20 -32 -43 -35 -51
-4 -8 -16 -28 -27 -45 -11 -16 -24 -39 -30 -50 -6 -11 -19 -33 -30 -50 -11
-16 -22 -37 -26 -45 -3 -8 -9 -22 -14 -30 -5 -8 -19 -35 -30 -60 -12 -25 -26
-52 -31 -60 -5 -8 -12 -22 -15 -30 -7 -20 -33 -81 -76 -180 -19 -43 -37 -96
-48 -135 -8 -29 -16 -55 -41 -127 -6 -18 -15 -51 -20 -73 -4 -22 -17 -78 -29
-125 -11 -47 -25 -118 -30 -159 -5 -40 -14 -88 -19 -105 -14 -47 -26 -260 -25
-456 0 -237 22 -469 56 -610 6 -25 14 -65 18 -90 4 -25 12 -58 19 -73 6 -16
11 -41 11 -56 0 -15 4 -31 10 -37 5 -5 14 -30 19 -54 5 -25 19 -70 31 -100 12
-30 25 -70 30 -89 5 -18 13 -38 19 -44 6 -6 11 -19 11 -28 0 -10 6 -30 14 -46
8 -15 29 -59 46 -98 18 -38 36 -77 41 -85 5 -8 12 -22 15 -30 3 -8 9 -22 14
-30 5 -8 21 -37 35 -65 14 -27 35 -63 45 -80 11 -16 23 -37 27 -45 23 -48 227
-337 258 -365 6 -5 29 -32 50 -60 51 -65 285 -299 350 -350 28 -21 55 -44 60
-50 36 -40 328 -242 410 -284 11 -6 47 -27 80 -46 33 -19 67 -38 75 -41 8 -3
22 -10 30 -15 8 -5 22 -12 30 -15 26 -10 144 -65 173 -80 16 -8 36 -14 46 -14
9 0 22 -5 28 -11 6 -6 26 -14 44 -19 19 -5 59 -18 89 -30 30 -12 75 -26 100
-31 24 -5 49 -14 54 -19 6 -6 22 -10 37 -10 15 0 40 -5 56 -11 15 -7 48 -15
73 -19 25 -4 65 -12 90 -18 212 -51 628 -71 930 -44 172 15 340 43 465 77 28
8 61 16 75 19 14 2 41 9 60 16 65 22 95 32 125 40 52 14 107 35 197 74 21 9
55 24 75 33 21 9 45 20 53 25 8 4 22 11 30 14 22 9 93 44 110 54 8 5 22 11 30
14 8 4 29 15 45 26 17 11 39 24 50 30 11 6 34 19 50 30 17 11 37 23 45 27 8 3
31 19 51 35 20 15 40 28 44 28 3 0 33 20 65 45 32 25 62 45 66 45 4 0 12 6 18
13 6 8 47 43 91 78 103 82 365 345 430 429 27 36 62 78 77 94 15 17 28 35 28
41 0 6 12 24 28 41 32 37 49 61 62 92 5 12 14 22 20 22 5 0 10 5 10 10 0 6 12
29 27 53 39 60 43 67 89 154 82 154 154 305 154 322 0 5 6 22 14 38 26 52 46
104 46 118 0 8 6 29 14 47 23 56 38 101 46 143 5 22 14 60 21 85 41 157 55
226 69 360 5 47 14 119 19 160 13 100 13 434 0 540 -5 47 -14 124 -18 171 -4
47 -11 90 -15 97 -3 6 -11 41 -16 79 -5 37 -15 88 -21 113 -19 75 -40 153 -51
185 -5 17 -13 44 -18 60 -11 39 -29 91 -46 133 -8 18 -14 41 -14 51 0 10 -7
24 -15 31 -8 7 -15 19 -15 26 0 17 -101 236 -140 304 -5 8 -11 22 -14 30 -4 8
-15 29 -26 45 -11 17 -24 39 -30 50 -17 31 -32 55 -76 120 -22 33 -56 83 -74
110 -19 28 -37 52 -41 55 -3 3 -29 34 -56 70 -127 166 -357 396 -523 523 -36
27 -67 53 -70 56 -3 4 -27 22 -55 41 -27 18 -77 52 -110 74 -65 44 -89 59
-120 76 -11 6 -33 19 -50 30 -16 11 -37 22 -45 26 -8 3 -22 9 -30 14 -68 39
-287 140 -304 140 -7 0 -19 7 -26 15 -7 8 -21 15 -31 15 -10 0 -33 6 -51 14
-42 17 -94 35 -133 46 -16 5 -43 13 -60 18 -32 11 -110 32 -185 51 -25 6 -76
16 -113 21 -38 5 -73 13 -80 17 -6 3 -52 10 -101 15 -50 4 -125 12 -166 17
-91 12 -460 12 -550 0z m360 -1234 c7 -8 19 -15 27 -15 7 0 16 -7 19 -15 4 -8
10 -15 16 -15 13 0 252 -159 256 -171 2 -5 8 -9 14 -9 13 0 252 -159 256 -171
2 -5 8 -9 14 -9 13 0 252 -159 256 -171 2 -5 8 -9 14 -9 13 0 252 -159 256
-171 2 -5 8 -9 14 -9 13 0 252 -159 256 -171 2 -5 8 -9 14 -9 13 0 252 -159
256 -171 2 -5 8 -9 14 -9 13 0 147 -88 173 -114 58 -57 55 -11 55 -735 0 -639
-1 -665 -19 -695 -20 -32 -72 -76 -91 -76 -5 0 -10 -5 -10 -10 0 -6 -8 -13
-17 -17 -10 -3 -34 -19 -54 -35 -20 -15 -40 -28 -44 -28 -4 0 -24 -13 -44 -28
-20 -16 -43 -32 -51 -35 -27 -12 -55 -32 -63 -44 -4 -7 -13 -13 -19 -13 -5 0
-27 -14 -48 -30 -21 -16 -41 -30 -45 -30 -4 0 -24 -12 -44 -27 -41 -32 -69
-50 -91 -60 -8 -3 -19 -12 -23 -20 -4 -7 -13 -13 -19 -13 -5 0 -27 -13 -48
-30 -21 -16 -41 -30 -45 -30 -4 0 -24 -13 -44 -28 -20 -16 -43 -32 -51 -35
-27 -12 -55 -32 -63 -45 -4 -6 -13 -12 -19 -12 -5 0 -27 -13 -48 -30 -21 -16
-41 -30 -45 -30 -4 0 -24 -12 -44 -27 -48 -37 -72 -52 -93 -59 -10 -4 -18 -10
-18 -15 0 -6 -8 -12 -17 -16 -10 -3 -34 -19 -54 -35 -20 -15 -40 -28 -44 -28
-4 0 -24 -12 -44 -27 -48 -37 -72 -52 -93 -59 -9 -3 -19 -12 -22 -20 -3 -8
-10 -14 -17 -14 -6 0 -28 -14 -49 -30 -21 -16 -41 -30 -45 -30 -4 0 -24 -12
-44 -27 -48 -37 -72 -52 -93 -59 -9 -3 -19 -12 -22 -20 -3 -8 -10 -14 -17 -14
-6 0 -28 -12 -48 -28 -68 -51 -148 -92 -179 -92 -11 0 -37 8 -58 18 -48 21
-1860 1228 -1887 1257 -11 11 -28 38 -38 60 -17 38 -19 77 -19 665 l0 625 24
51 c22 48 61 83 154 139 9 6 33 22 53 38 20 15 40 27 44 27 4 0 24 14 45 30
21 17 41 30 45 30 4 0 24 14 45 30 21 17 41 30 45 30 4 0 24 14 45 30 21 17
41 30 45 30 4 0 24 14 45 30 21 17 41 30 45 30 4 0 24 14 45 30 21 17 41 30
45 30 4 0 24 13 44 29 20 15 41 30 46 32 6 2 43 27 83 54 41 28 81 55 90 60 9
6 33 22 53 38 20 15 40 27 44 27 4 0 24 14 45 30 21 17 41 30 45 30 4 0 24 14
45 30 21 17 41 30 45 30 4 0 24 14 45 30 21 17 41 30 45 30 4 0 24 14 45 30
21 17 41 30 45 30 4 0 24 14 45 30 21 17 41 30 45 30 4 0 24 14 45 30 21 17
41 30 45 30 4 0 24 14 45 30 21 17 41 30 45 30 4 0 24 14 45 30 21 17 41 30
45 30 3 0 22 12 41 26 66 51 97 63 160 63 43 1 65 -4 74 -14z"/>
<path d="M3121 4817 c-35 -23 -70 -46 -79 -52 -10 -5 -33 -22 -52 -36 -19 -14
-39 -28 -45 -30 -5 -2 -43 -26 -83 -54 -41 -27 -81 -54 -90 -60 -9 -5 -33 -22
-52 -36 -19 -14 -39 -28 -45 -30 -5 -2 -43 -26 -83 -54 -41 -27 -81 -54 -90
-60 -9 -5 -33 -22 -52 -36 -19 -14 -39 -28 -45 -30 -5 -2 -43 -26 -83 -54 -41
-27 -81 -54 -90 -60 -9 -5 -33 -22 -52 -36 -19 -14 -39 -28 -45 -30 -5 -2 -43
-26 -83 -54 -40 -27 -81 -54 -90 -60 -51 -30 -82 -59 -82 -76 0 -10 5 -19 12
-19 14 0 252 -158 256 -171 2 -5 8 -9 14 -9 13 0 252 -159 256 -171 7 -19 65
-8 101 19 20 15 181 124 358 242 l323 215 0 387 c0 213 -4 389 -8 392 -5 3
-37 -14 -71 -37z"/>
<path d="M3545 4837 c-3 -6 -4 -180 -3 -386 l3 -374 60 -44 c33 -24 70 -48 83
-53 12 -5 22 -14 22 -19 0 -5 8 -11 18 -15 21 -7 45 -22 93 -58 20 -16 40 -28
44 -28 4 0 24 -13 45 -30 21 -16 43 -30 49 -30 7 0 14 -6 17 -14 3 -8 13 -17
22 -20 21 -7 45 -22 93 -58 20 -16 42 -28 48 -28 7 0 14 -7 17 -15 4 -8 11
-15 16 -15 6 0 27 -13 48 -30 41 -33 80 -39 100 -15 7 8 17 15 22 15 6 0 27
14 48 30 21 17 41 30 45 30 4 0 24 14 45 30 21 17 41 30 45 30 4 0 24 14 45
30 21 17 41 30 45 30 4 0 24 14 45 30 21 17 41 30 45 30 4 0 24 14 45 30 21
17 42 30 46 30 5 1 22 11 38 24 31 26 30 58 -2 70 -24 9 -64 33 -71 43 -8 10
-39 30 -68 43 -13 5 -23 14 -23 19 0 5 -8 12 -17 15 -25 9 -64 32 -72 43 -8
10 -39 30 -68 43 -13 5 -23 14 -23 19 0 5 -8 12 -17 15 -25 9 -64 32 -72 43
-8 10 -39 30 -68 43 -13 5 -23 14 -23 19 0 5 -8 12 -17 15 -25 9 -64 32 -72
43 -8 10 -39 30 -68 43 -13 5 -23 14 -23 19 0 5 -8 12 -17 15 -25 9 -64 32
-72 43 -8 10 -39 30 -68 43 -13 5 -23 14 -23 19 0 5 -8 12 -17 15 -25 9 -64
32 -72 43 -8 10 -39 30 -68 43 -13 5 -23 14 -23 19 0 5 -8 12 -17 15 -25 9
-64 32 -72 43 -8 10 -39 30 -68 43 -13 5 -23 14 -23 20 0 14 -40 12 -45 -3z"/>
<path d="M3320 3740 c-19 -16 -39 -30 -44 -30 -4 0 -25 -13 -46 -30 -21 -16
-41 -30 -45 -30 -4 0 -24 -13 -45 -30 -21 -16 -41 -30 -45 -30 -4 0 -24 -13
-45 -30 -21 -16 -41 -30 -45 -30 -4 0 -24 -13 -45 -30 -21 -16 -41 -30 -45
-30 -4 0 -24 -13 -45 -30 -21 -16 -42 -30 -47 -30 -13 0 -43 -33 -43 -47 0 -6
8 -14 18 -17 24 -9 63 -32 71 -43 8 -10 39 -30 69 -43 12 -5 22 -14 22 -19 0
-5 8 -12 18 -15 32 -12 72 -37 72 -45 0 -5 8 -12 18 -15 24 -9 63 -32 71 -43
8 -10 39 -30 69 -43 12 -5 22 -14 22 -19 0 -5 8 -12 18 -15 24 -9 63 -32 71
-43 3 -4 16 -14 29 -21 22 -12 43 0 318 184 162 108 294 200 294 205 0 4 -33
29 -72 55 -40 26 -78 53 -83 58 -12 13 -44 33 -65 43 -8 3 -31 19 -51 35 -20
15 -40 28 -44 28 -4 0 -24 14 -45 30 -21 17 -43 30 -48 30 -6 0 -15 6 -19 13
-8 12 -36 32 -63 44 -8 3 -31 19 -51 35 -46 35 -55 35 -99 -2z"/>
<path d="M1730 3376 c0 -146 4 -267 9 -270 5 -3 20 3 34 14 14 11 30 20 36 20
6 0 11 5 11 10 0 6 8 13 18 17 9 3 33 19 53 35 20 15 40 28 44 28 4 0 24 12
44 28 48 36 72 51 94 58 9 4 17 10 17 15 0 5 12 14 26 20 l27 10 -23 24 c-13
14 -29 25 -36 25 -7 0 -17 6 -21 13 -9 14 -37 32 -70 47 -13 5 -23 14 -23 19
0 5 -8 12 -17 15 -33 12 -73 37 -73 45 0 5 -8 12 -17 15 -27 10 -56 28 -83 54
-49 46 -50 42 -50 -242z"/>
<path d="M4985 3628 c-11 -6 -85 -54 -163 -107 -79 -53 -152 -101 -162 -106
-30 -18 -50 -37 -50 -49 0 -6 17 -21 38 -34 66 -39 76 -46 113 -74 20 -16 40
-28 44 -28 4 0 24 -13 45 -30 21 -16 41 -30 45 -30 4 0 24 -13 44 -29 20 -15
46 -31 59 -35 l22 -7 0 270 c0 149 -3 271 -7 271 -5 0 -17 -6 -28 -12z"/>
<path d="M2440 3146 c-14 -6 -41 -22 -60 -36 -45 -32 -71 -48 -92 -56 -10 -3
-18 -10 -18 -14 0 -5 -21 -21 -46 -37 -54 -33 -73 -45 -147 -95 -31 -21 -60
-38 -66 -38 -6 0 -11 -4 -11 -8 0 -4 -30 -27 -66 -51 l-65 -43 22 -24 c12 -13
27 -24 32 -24 5 0 26 -13 47 -30 21 -16 41 -30 45 -30 4 0 24 -13 45 -30 21
-16 41 -30 45 -30 4 0 24 -13 45 -30 21 -16 41 -30 45 -30 4 0 24 -13 45 -30
21 -16 41 -30 45 -30 4 0 24 -13 45 -30 21 -16 41 -30 45 -30 4 0 24 -13 45
-30 21 -16 41 -30 45 -30 4 0 24 -13 45 -30 21 -16 41 -30 45 -30 4 0 24 -13
45 -30 21 -17 41 -30 45 -30 4 0 24 -13 45 -30 21 -16 41 -30 45 -30 4 0 24
-13 45 -30 21 -16 41 -30 45 -30 4 0 24 -13 45 -30 21 -16 41 -30 45 -30 4 0
24 -13 45 -30 21 -16 41 -30 45 -30 4 0 24 -13 45 -30 21 -16 41 -30 45 -30 4
0 24 -13 45 -30 21 -16 43 -30 49 -30 13 0 16 767 3 786 -4 5 -37 30 -74 54
-38 24 -68 48 -68 52 0 4 -5 8 -11 8 -14 0 -253 159 -257 171 -2 5 -8 9 -14 9
-10 0 -236 146 -253 164 -24 26 -50 33 -75 22z"/>
<path d="M4264 3144 c-36 -17 -58 -31 -105 -66 -20 -16 -40 -28 -44 -28 -4 0
-24 -13 -45 -30 -21 -16 -41 -30 -45 -30 -4 0 -24 -13 -45 -30 -21 -16 -41
-30 -45 -30 -4 0 -24 -13 -45 -30 -21 -16 -41 -30 -45 -30 -4 0 -24 -13 -45
-30 -21 -16 -43 -30 -49 -30 -6 0 -11 -5 -11 -10 0 -6 -10 -15 -22 -20 -30
-13 -61 -33 -69 -43 -7 -10 -47 -34 -70 -43 -36 -13 -39 -47 -39 -429 0 -328
2 -375 15 -375 8 0 42 18 74 40 32 22 63 40 69 40 6 0 12 4 14 9 4 12 243 171
256 171 6 0 12 4 14 9 4 12 243 171 256 171 6 0 12 4 14 9 4 12 243 171 257
171 6 0 11 4 11 9 0 6 11 16 24 23 14 7 70 43 125 81 54 37 104 67 110 67 6 0
11 4 11 9 0 6 18 20 40 32 22 13 40 27 39 33 0 6 -130 97 -289 202 -282 188
-288 191 -316 178z"/>
</g>
</svg>
