<?xml version="1.0" standalone="no"?>
<!DOCTYPE svg PUBLIC "-//W3C//DTD SVG 20010904//EN"
 "http://www.w3.org/TR/2001/REC-SVG-20010904/DTD/svg10.dtd">
<svg version="1.0" xmlns="http://www.w3.org/2000/svg"
 width="672.000000pt" height="672.000000pt" viewBox="0 0 672.000000 672.000000"
 preserveAspectRatio="xMidYMid meet">
<metadata>
Created by potrace 1.10, written by Peter Selinger 2001-2011
</metadata>
<g transform="translate(0.000000,672.000000) scale(0.100000,-0.100000)"
fill="#171516" stroke="none">
<path d="M3120 5799 c-25 -5 -83 -13 -130 -18 -93 -10 -178 -26 -255 -46 -150
-40 -209 -59 -283 -91 -18 -8 -37 -14 -42 -14 -18 0 -260 -116 -315 -151 -16
-10 -39 -23 -50 -29 -84 -45 -243 -158 -345 -246 -57 -49 -233 -224 -288 -287
-42 -48 -145 -184 -169 -222 -14 -23 -110 -183 -123 -205 -27 -47 -98 -201
-125 -270 -9 -25 -23 -58 -29 -75 -12 -27 -26 -71 -61 -195 -15 -52 -37 -156
-60 -290 -22 -127 -17 -617 7 -755 22 -122 57 -269 79 -330 6 -16 13 -41 16
-55 4 -24 21 -65 49 -123 8 -16 14 -34 14 -40 0 -14 121 -257 150 -302 11 -16
23 -37 26 -45 10 -21 96 -151 114 -171 8 -9 26 -33 40 -53 54 -79 234 -269
353 -374 61 -53 203 -162 212 -162 4 0 24 -12 44 -27 41 -31 57 -42 121 -76
25 -14 61 -34 80 -46 19 -11 42 -24 50 -27 8 -3 42 -19 75 -34 33 -15 80 -35
105 -45 25 -10 59 -23 75 -30 130 -55 215 -43 249 34 16 35 18 62 13 271 -3
128 -8 235 -12 238 -3 3 -26 1 -50 -6 -69 -18 -350 -16 -416 4 -54 16 -111 38
-139 55 -8 5 -25 13 -36 18 -12 6 -50 37 -85 69 -63 59 -71 72 -161 255 -18
38 -39 73 -45 79 -7 6 -13 16 -13 22 0 14 -119 139 -141 149 -8 3 -40 26 -71
51 -63 50 -73 79 -39 111 17 14 34 16 98 13 96 -5 183 -43 262 -114 54 -49
131 -145 131 -164 0 -12 144 -158 175 -178 11 -6 27 -15 35 -18 8 -3 26 -11
40 -18 50 -26 180 -39 266 -26 75 11 177 40 191 53 9 9 42 109 43 128 0 9 11
36 25 60 14 24 28 51 32 59 3 8 19 31 34 51 16 20 26 39 22 43 -3 3 -31 6 -60
6 -52 0 -134 15 -238 45 -27 8 -59 16 -70 19 -86 21 -262 106 -340 164 -102
77 -221 202 -248 262 -4 8 -18 33 -32 55 -13 22 -24 47 -25 56 0 9 -6 22 -14
28 -8 6 -16 24 -19 39 -2 15 -9 41 -15 57 -47 134 -72 303 -72 485 0 80 5 161
11 180 5 19 14 55 18 80 11 55 25 96 65 180 32 69 123 210 135 210 15 0 31 50
22 68 -37 72 -55 314 -30 407 6 22 14 60 19 85 23 116 47 150 104 150 50 0
187 -28 201 -41 5 -5 17 -9 27 -9 16 0 130 -47 168 -70 8 -5 35 -19 60 -32 25
-12 61 -33 80 -46 19 -13 45 -28 58 -33 12 -5 22 -13 22 -19 0 -13 42 -13 77
1 15 6 53 15 83 19 30 5 75 13 100 18 68 15 294 36 395 36 98 0 324 -20 395
-36 25 -5 68 -13 95 -17 28 -5 70 -14 95 -21 44 -12 48 -12 90 16 61 39 82 52
100 61 8 4 35 18 60 33 40 23 143 68 240 105 48 19 168 38 209 33 35 -3 54
-28 81 -108 45 -133 45 -416 0 -525 -12 -29 -10 -34 46 -111 68 -92 76 -105
102 -159 55 -116 79 -203 94 -338 10 -100 9 -142 -5 -287 -9 -93 -21 -179 -27
-189 -5 -11 -10 -31 -10 -44 0 -13 -12 -55 -26 -93 -14 -38 -28 -78 -32 -89
-3 -11 -18 -42 -34 -68 -15 -26 -28 -50 -28 -53 0 -12 -89 -124 -140 -175 -94
-95 -163 -141 -340 -224 -26 -12 -99 -35 -192 -59 -125 -34 -189 -46 -237 -46
-27 0 -53 -5 -56 -10 -3 -6 9 -29 28 -53 41 -51 88 -147 99 -205 4 -23 12 -63
17 -90 6 -26 10 -229 11 -452 1 -372 2 -407 18 -425 51 -57 118 -60 237 -9 17
6 50 20 75 30 66 25 287 135 347 172 82 52 225 153 293 207 152 121 446 443
473 518 3 9 10 17 16 17 5 0 11 8 15 18 3 9 14 29 23 44 78 119 172 302 228
448 9 25 22 56 27 70 6 14 14 41 18 60 5 19 13 49 18 65 118 349 129 908 27
1290 -45 167 -73 250 -122 362 -34 79 -42 99 -48 113 -3 8 -20 42 -39 75 -18
33 -45 82 -60 109 -14 27 -37 64 -51 82 -14 18 -25 36 -25 39 0 4 -13 24 -30
45 -16 21 -30 43 -30 49 0 6 -4 11 -8 11 -5 0 -30 30 -58 67 -95 131 -356 378
-502 476 -31 22 -59 42 -62 46 -3 4 -12 11 -20 14 -8 4 -28 16 -45 27 -16 11
-39 24 -50 30 -11 6 -47 26 -80 45 -33 18 -80 43 -105 55 -25 12 -57 28 -72
36 -14 8 -33 14 -41 14 -8 0 -20 6 -26 14 -6 8 -24 16 -39 19 -15 3 -52 15
-82 27 -30 12 -71 26 -90 30 -19 4 -48 13 -65 18 -94 31 -136 42 -163 42 -17
0 -42 4 -56 10 -89 33 -595 62 -706 39z"/>
<path d="M1715 2240 c-10 -16 4 -30 31 -30 27 0 33 24 8 34 -22 8 -32 8 -39
-4z"/>
<path d="M1820 2147 c0 -28 17 -47 42 -47 24 0 24 38 1 56 -27 20 -43 17 -43
-9z"/>
<path d="M1913 2024 c-13 -34 35 -77 61 -55 12 10 13 17 4 35 -20 38 -54 48
-65 20z"/>
<path d="M2037 1893 c-25 -24 13 -73 56 -73 36 0 36 31 1 59 -27 22 -46 26
-57 14z"/>
<path d="M2206 1775 c-8 -23 4 -45 29 -51 30 -7 65 4 65 20 0 37 -81 63 -94
31z"/>
<path d="M2616 1767 c-21 -16 -16 -44 9 -54 28 -10 67 14 63 40 -4 27 -44 35
-72 14z"/>
<path d="M2415 1738 c-14 -21 -14 -24 2 -35 19 -14 36 -16 71 -7 28 8 28 28 0
48 -31 22 -54 20 -73 -6z"/>
</g>
</svg>
