<?xml version="1.0" standalone="no"?>
<!DOCTYPE svg PUBLIC "-//W3C//DTD SVG 20010904//EN"
 "http://www.w3.org/TR/2001/REC-SVG-20010904/DTD/svg10.dtd">
<svg version="1.0" xmlns="http://www.w3.org/2000/svg"
 width="432.000000pt" height="432.000000pt" viewBox="0 0 432.000000 432.000000"
 preserveAspectRatio="xMidYMid meet">
<metadata>
Created by potrace 1.10, written by Peter Selinger 2001-2011
</metadata>
<g transform="translate(0.000000,432.000000) scale(0.100000,-0.100000)"
fill="#410094" stroke="none">
<path d="M483 4313 c11 -10 -13 -33 -34 -33 -19 0 -62 -20 -111 -53 -41 -28
-102 -115 -131 -189 l-27 -66 0 -1822 0 -1822 27 -66 c29 -74 90 -161 131
-189 50 -33 92 -53 111 -53 11 0 23 -5 26 -10 9 -15 3267 -14 3314 1 133 42
213 120 261 255 20 58 20 73 20 1884 0 1811 0 1826 -20 1884 -47 132 -143 228
-252 251 -16 3 -28 12 -28 20 0 13 -199 15 -1647 15 -905 0 -1643 -3 -1640 -7z
m3282 -236 c21 -12 52 -40 67 -62 l27 -40 0 -1825 0 -1825 -27 -40 c-15 -22
-46 -50 -67 -62 l-40 -21 -1593 -1 c-1571 -1 -1593 -1 -1632 19 -64 33 -91 78
-101 168 -12 112 -11 3474 1 3546 11 68 44 117 98 146 36 19 69 19 1632 19
l1595 -1 40 -21z"/>
<path d="M1167 3643 c-10 -10 -8 -1831 2 -1837 5 -3 21 1 37 8 28 13 73 34
214 98 36 16 78 35 93 43 16 8 33 15 39 15 5 0 24 6 41 13 41 17 85 33 167 58
251 77 377 100 579 106 132 4 161 2 195 -13 47 -20 79 -46 109 -89 22 -30 22
-34 27 -710 l5 -680 210 0 210 0 -2 665 c-1 643 -7 788 -32 813 -6 6 -11 18
-11 27 -1 21 -28 74 -71 140 -77 118 -206 206 -366 251 -69 19 -95 21 -282 17
-113 -3 -226 -10 -251 -16 -25 -6 -72 -16 -105 -22 -116 -21 -156 -29 -188
-39 -108 -35 -180 -52 -192 -47 -13 5 -15 88 -15 606 l0 600 -203 0 c-112 0
-207 -3 -210 -7z"/>
<path d="M2666 3638 c-3 -7 -7 -26 -10 -43 -18 -108 -99 -309 -175 -435 -11
-19 -24 -42 -28 -50 -3 -8 -26 -41 -50 -73 -24 -32 -41 -62 -38 -67 4 -6 90
-10 204 -10 l197 0 35 38 c19 20 46 53 60 72 37 51 129 206 129 218 0 6 6 23
14 39 32 62 66 169 76 236 4 29 9 59 11 67 3 13 -25 15 -209 18 -165 2 -213 0
-216 -10z"/>
<path d="M1160 1070 c0 -272 3 -410 10 -410 6 0 34 22 63 49 50 46 77 71 251
226 43 39 95 85 115 103 l36 32 -36 33 c-20 17 -72 64 -115 102 -174 155 -201
180 -251 226 -29 27 -57 49 -63 49 -7 0 -10 -138 -10 -410z"/>
</g>
</svg>
