<?xml version="1.0" standalone="no"?>
<!DOCTYPE svg PUBLIC "-//W3C//DTD SVG 20010904//EN"
 "http://www.w3.org/TR/2001/REC-SVG-20010904/DTD/svg10.dtd">
<svg version="1.0" xmlns="http://www.w3.org/2000/svg"
 width="675.000000pt" height="675.000000pt" viewBox="0 0 675.000000 675.000000"
 preserveAspectRatio="xMidYMid meet">
<metadata>
Created by potrace 1.10, written by Peter Selinger 2001-2011
</metadata>
<g transform="translate(0.000000,675.000000) scale(0.100000,-0.100000)"
fill="#007ac3" stroke="none">
<path d="M757 6731 c-4 -16 -18 -20 -82 -26 -43 -4 -89 -14 -104 -21 -14 -8
-30 -14 -36 -14 -40 0 -223 -117 -291 -184 -67 -68 -184 -251 -184 -291 0 -5
-6 -22 -14 -36 -7 -15 -17 -61 -21 -103 -3 -42 -11 -78 -16 -82 -12 -7 -12
-5211 0 -5218 5 -4 13 -40 16 -82 4 -42 14 -88 21 -103 8 -14 14 -30 14 -36 0
-40 117 -223 184 -291 68 -67 251 -184 291 -184 6 0 22 -6 36 -14 15 -7 61
-17 103 -21 42 -3 78 -11 82 -16 7 -12 5211 -12 5218 0 3 5 36 12 73 15 142
15 324 106 438 221 115 114 206 296 221 438 5 51 11 71 25 80 19 12 19 80 19
2602 0 2539 0 2590 -19 2602 -15 9 -21 29 -26 89 -4 42 -14 88 -21 103 -8 14
-14 31 -14 36 0 35 -101 199 -175 283 -48 56 -261 192 -300 192 -5 0 -22 6
-36 14 -15 7 -61 17 -104 21 -64 6 -78 10 -82 26 -5 19 -58 19 -2608 19 -2550
0 -2603 0 -2608 -19z m1874 -835 c14 -7 38 -16 55 -20 16 -4 31 -11 34 -15 3
-4 23 -18 45 -31 87 -53 161 -165 185 -280 13 -64 10 -3924 -4 -3975 -11 -43
-49 -125 -58 -125 -5 0 -8 -6 -8 -13 0 -33 -170 -167 -212 -167 -8 0 -20 -6
-26 -13 -19 -18 -1485 -18 -1504 1 -6 6 -22 12 -34 12 -12 0 -27 7 -34 15 -7
8 -19 15 -27 15 -18 0 -163 142 -163 160 0 6 -7 18 -15 26 -8 9 -15 24 -15 34
0 10 -7 31 -15 46 -13 25 -15 272 -15 2009 0 1737 2 1984 15 2009 8 15 15 35
15 43 0 25 52 104 101 152 48 49 127 101 152 101 8 0 28 7 43 15 25 13 129 15
744 15 578 0 720 -3 741 -14z m2953 -1 c15 -8 35 -15 43 -15 63 0 251 -188
253 -251 0 -9 7 -30 15 -46 14 -27 15 -169 13 -1179 -2 -813 -6 -1155 -14
-1169 -6 -11 -22 -42 -35 -68 -13 -26 -44 -70 -69 -96 -52 -55 -156 -121 -192
-121 -13 0 -30 -6 -36 -12 -17 -17 -1315 -25 -1389 -9 -103 21 -143 33 -143
42 0 5 -9 9 -20 9 -26 0 -190 163 -190 188 0 10 -5 23 -12 30 -6 6 -16 33 -21
59 -16 72 -22 2221 -6 2293 12 60 49 150 61 150 5 0 8 6 8 13 0 22 122 137
145 137 4 0 13 7 21 15 9 8 24 15 34 15 10 0 31 7 46 15 25 13 129 15 744 15
615 0 719 -2 744 -15z"/>
</g>
</svg>
