<?xml version="1.0" standalone="no"?>
<!DOCTYPE svg PUBLIC "-//W3C//DTD SVG 20010904//EN"
 "http://www.w3.org/TR/2001/REC-SVG-20010904/DTD/svg10.dtd">
<svg version="1.0" xmlns="http://www.w3.org/2000/svg"
 width="675.000000pt" height="675.000000pt" viewBox="0 0 675.000000 675.000000"
 preserveAspectRatio="xMidYMid meet">
<metadata>
Created by potrace 1.10, written by Peter Selinger 2001-2011
</metadata>
<g transform="translate(0.000000,675.000000) scale(0.100000,-0.100000)"
fill="#1a1a1a" stroke="none">
<path d="M2785 4893 c-22 -9 -57 -27 -77 -40 -38 -23 -114 -112 -128 -148 -4
-11 -15 -39 -24 -62 -42 -111 -49 -130 -63 -165 l-15 -36 -267 -4 c-253 -4
-268 -6 -316 -28 -120 -56 -189 -120 -250 -232 l-40 -73 0 -957 0 -957 38 -73
c71 -136 158 -208 304 -252 46 -14 208 -16 1421 -16 1222 0 1374 2 1418 16
144 46 227 115 301 250 l38 69 0 960 0 960 -39 71 c-61 113 -133 179 -251 234
-47 22 -65 24 -315 29 l-265 6 -17 35 c-9 19 -24 54 -32 78 -40 107 -49 129
-63 158 -27 57 -99 129 -159 159 l-59 30 -550 2 c-490 2 -554 0 -590 -14z
m755 -937 c173 -42 305 -118 429 -245 84 -88 171 -237 192 -331 4 -19 13 -55
19 -80 15 -57 8 -311 -10 -360 -7 -19 -24 -65 -37 -102 -49 -135 -177 -294
-306 -379 -32 -22 -62 -39 -66 -39 -5 0 -14 -6 -20 -14 -6 -8 -22 -16 -34 -19
-12 -3 -49 -15 -82 -27 -107 -38 -237 -53 -340 -39 -213 27 -373 105 -517 252
-86 88 -178 244 -199 337 -4 19 -12 53 -18 75 -14 52 -14 268 0 320 6 22 14
57 18 77 14 67 99 222 162 295 65 78 170 161 259 206 87 45 163 68 300 91 41
7 191 -3 250 -18z"/>
<path d="M3265 3660 c-44 -10 -96 -24 -116 -32 -67 -25 -197 -134 -220 -183
-5 -11 -18 -35 -29 -53 -41 -68 -60 -146 -60 -249 1 -126 27 -207 101 -309
104 -143 237 -209 424 -209 114 0 146 7 243 52 57 27 172 128 196 172 70 128
85 181 85 296 0 114 -18 178 -83 293 -32 56 -176 182 -208 182 -7 0 -22 6 -33
14 -17 11 -182 47 -210 45 -5 0 -46 -9 -90 -19z"/>
</g>
</svg>
