<?xml version="1.0" standalone="no"?>
<!DOCTYPE svg PUBLIC "-//W3C//DTD SVG 20010904//EN"
 "http://www.w3.org/TR/2001/REC-SVG-20010904/DTD/svg10.dtd">
<svg version="1.0" xmlns="http://www.w3.org/2000/svg"
 width="675.000000pt" height="675.000000pt" viewBox="0 0 675.000000 675.000000"
 preserveAspectRatio="xMidYMid meet">
<metadata>
Created by potrace 1.10, written by Peter Selinger 2001-2011
</metadata>
<g transform="translate(0.000000,675.000000) scale(0.100000,-0.100000)"
fill="#c03724" stroke="none">
<path d="M3120 6250 c-36 -4 -114 -13 -175 -20 -60 -6 -117 -16 -126 -21 -10
-5 -35 -9 -56 -9 -21 0 -51 -7 -67 -15 -15 -8 -42 -15 -58 -15 -17 0 -44 -6
-61 -13 -42 -18 -123 -43 -164 -52 -18 -4 -35 -11 -38 -16 -4 -5 -16 -9 -29
-9 -12 0 -31 -7 -42 -15 -10 -8 -25 -15 -33 -15 -8 0 -60 -22 -115 -49 -56
-26 -120 -57 -143 -67 -24 -10 -43 -21 -43 -26 0 -4 -5 -8 -11 -8 -21 0 -269
-155 -277 -172 -2 -5 -10 -8 -17 -8 -8 0 -18 -6 -22 -13 -4 -6 -26 -25 -49
-40 -22 -15 -49 -35 -60 -45 -10 -9 -48 -42 -83 -72 -92 -79 -206 -192 -287
-285 -38 -44 -73 -85 -79 -91 -5 -6 -17 -22 -25 -34 -8 -12 -22 -30 -30 -40
-8 -10 -22 -28 -30 -40 -8 -12 -28 -41 -45 -64 -16 -22 -39 -57 -49 -76 -11
-19 -26 -41 -33 -48 -7 -7 -13 -20 -13 -28 0 -8 -4 -14 -9 -14 -5 0 -45 -73
-89 -162 -97 -197 -112 -231 -112 -251 0 -9 -4 -18 -9 -22 -5 -3 -12 -19 -16
-36 -4 -17 -13 -42 -21 -57 -8 -15 -14 -36 -14 -47 -1 -11 -7 -31 -15 -45 -8
-14 -14 -36 -15 -50 0 -15 -5 -31 -11 -37 -6 -6 -14 -35 -19 -64 -10 -61 -26
-143 -41 -210 -10 -46 -18 -119 -40 -372 -10 -110 -10 -165 0 -265 7 -70 16
-165 21 -212 4 -47 12 -108 18 -135 12 -53 28 -140 41 -218 4 -26 13 -53 19
-59 7 -7 12 -23 12 -38 0 -14 7 -38 15 -54 8 -15 15 -36 15 -45 0 -9 7 -29 15
-45 8 -15 15 -36 15 -45 0 -10 7 -26 15 -37 8 -10 15 -27 15 -37 0 -11 6 -31
13 -45 8 -15 21 -43 29 -62 54 -124 203 -396 250 -455 4 -5 42 -57 85 -115 89
-122 118 -155 273 -310 152 -152 189 -185 290 -259 47 -34 93 -67 102 -74 40
-29 61 -43 125 -83 38 -24 88 -53 113 -66 25 -13 47 -25 50 -28 7 -7 176 -87
265 -126 17 -7 46 -20 67 -28 20 -9 43 -16 51 -16 8 0 28 -7 43 -15 16 -8 38
-15 49 -15 11 0 29 -7 39 -15 11 -8 34 -15 51 -15 17 0 36 -5 43 -12 6 -6 33
-15 59 -19 150 -25 181 -31 210 -40 145 -44 802 -44 993 0 59 14 142 30 209
41 29 5 58 13 64 19 6 6 22 11 35 11 13 0 38 6 55 13 42 18 93 36 137 49 19 5
39 14 44 19 6 5 19 9 29 9 10 0 31 6 45 14 15 8 90 45 167 82 77 37 142 70
145 73 3 3 26 17 53 31 26 13 47 28 47 31 0 4 11 10 25 13 14 4 25 11 25 16 0
6 5 10 10 10 10 0 59 31 86 55 6 6 22 17 34 25 12 8 31 23 42 32 12 10 24 18
28 18 4 0 18 10 31 23 14 12 54 47 89 77 84 71 243 230 300 299 25 30 50 59
55 65 45 48 235 316 235 331 0 3 17 33 39 68 21 35 55 99 76 142 20 44 50 107
66 141 16 33 29 67 29 75 0 8 7 23 15 33 8 11 15 27 15 37 0 9 7 30 15 45 8
16 15 36 15 45 0 9 7 30 15 45 8 16 15 39 15 50 0 12 7 35 15 50 8 16 15 43
15 59 0 17 5 36 11 42 6 6 15 40 20 75 5 35 13 95 19 133 31 198 35 257 35
460 0 201 -9 318 -36 490 -6 33 -14 89 -19 124 -5 36 -14 69 -20 75 -5 5 -10
19 -10 31 0 18 -12 61 -42 150 -5 17 -14 44 -18 60 -11 37 -37 111 -51 145 -6
14 -17 39 -23 55 -19 44 -76 168 -87 185 -5 8 -12 22 -15 30 -3 8 -10 22 -15
30 -5 8 -14 27 -20 43 -6 15 -15 27 -20 27 -5 0 -9 6 -9 13 0 8 -13 33 -30 55
-16 23 -30 44 -30 47 0 7 -158 236 -169 245 -4 3 -25 28 -46 55 -22 28 -42 52
-45 55 -3 3 -43 46 -90 95 -72 76 -131 131 -300 279 -14 12 -45 36 -70 52 -25
17 -75 52 -113 77 -37 26 -70 47 -73 47 -3 0 -20 11 -37 24 -18 14 -43 30 -57
35 -14 6 -38 20 -55 31 -16 11 -37 23 -45 26 -8 4 -58 27 -110 51 -52 25 -108
51 -125 58 -16 7 -41 18 -55 24 -14 6 -74 26 -135 46 -60 19 -130 42 -155 50
-25 8 -56 15 -70 15 -15 0 -31 5 -37 11 -6 6 -37 15 -69 19 -33 5 -95 13 -139
20 -44 6 -107 15 -140 21 -76 13 -469 20 -555 9z m1905 -1250 c-1 -30 -6 -99
-13 -152 -7 -54 -12 -164 -12 -245 0 -81 -5 -186 -10 -233 -6 -47 -15 -200
-20 -340 -10 -314 -26 -640 -46 -955 -8 -132 -14 -285 -14 -340 0 -55 -7 -179
-15 -275 -8 -96 -15 -224 -15 -284 0 -127 -9 -146 -70 -146 -21 0 -57 -7 -80
-15 -23 -8 -57 -15 -75 -15 -18 0 -52 -7 -75 -15 -23 -8 -56 -15 -73 -15 -17
0 -53 -6 -81 -14 -53 -15 -140 -32 -236 -46 -30 -4 -76 -14 -101 -21 -55 -15
-79 -8 -79 24 0 13 -4 27 -9 33 -10 9 -34 72 -53 134 -5 19 -14 39 -19 44 -5
6 -9 19 -9 30 0 12 -7 30 -15 40 -8 11 -15 28 -15 37 0 10 -6 30 -14 46 -8 15
-22 47 -30 71 -9 23 -23 61 -32 85 -8 23 -22 55 -30 70 -8 16 -14 37 -14 47 0
10 -6 31 -14 47 -24 49 -44 97 -49 118 -6 20 -17 50 -57 155 -12 30 -26 69
-31 87 -5 18 -14 35 -19 38 -6 4 -10 16 -10 28 0 13 -6 31 -14 42 -7 11 -16
31 -19 45 -7 34 -35 111 -47 132 -6 10 -10 28 -10 42 0 13 -6 29 -14 35 -8 6
-16 26 -19 44 -4 29 -24 89 -46 142 -10 25 -38 120 -46 158 -3 16 -12 27 -21
27 -13 0 -15 -8 -10 -42 3 -24 9 -457 12 -964 l7 -921 -24 -16 c-13 -10 -42
-17 -65 -17 -23 0 -61 -7 -84 -15 -23 -8 -56 -15 -71 -15 -16 0 -55 -6 -87
-14 -31 -8 -93 -22 -137 -30 -44 -8 -107 -20 -140 -27 -33 -6 -82 -15 -110
-18 -27 -4 -67 -13 -87 -21 -34 -12 -39 -12 -58 5 -11 10 -20 25 -20 33 0 7
-6 26 -13 40 -8 15 -21 43 -29 62 -9 19 -30 67 -48 105 -17 39 -37 84 -44 100
-15 37 -34 79 -76 170 -17 39 -37 84 -44 100 -14 34 -36 83 -59 135 -9 19 -18
42 -21 50 -3 8 -10 22 -14 30 -5 8 -16 31 -24 50 -8 19 -24 55 -36 80 -24 53
-68 152 -86 195 -18 43 -75 165 -92 198 -8 16 -14 37 -14 47 0 9 -7 23 -15 30
-8 7 -15 19 -15 26 0 8 -14 42 -31 76 -17 35 -36 77 -43 93 -22 52 -42 98 -75
170 -18 39 -39 86 -48 105 -8 19 -21 48 -29 63 -8 16 -14 37 -14 47 0 10 -4
21 -9 24 -10 7 -30 48 -95 201 -27 61 -43 98 -76 170 -31 68 -49 109 -75 170
-7 17 -27 59 -43 94 -33 68 -33 81 0 81 11 0 52 7 92 15 39 9 103 22 141 30
39 7 97 19 130 25 33 7 85 16 115 20 30 4 68 12 83 18 16 7 45 12 65 12 20 0
55 7 77 15 66 24 97 19 118 -16 9 -17 17 -38 17 -48 0 -9 7 -26 15 -37 8 -10
15 -28 15 -39 0 -11 6 -29 14 -40 7 -11 16 -31 19 -45 7 -34 35 -111 47 -132
6 -10 10 -28 10 -42 0 -13 6 -29 14 -35 8 -6 16 -24 19 -39 6 -33 25 -88 43
-124 8 -14 14 -31 14 -38 0 -7 6 -26 13 -43 20 -48 38 -98 47 -136 5 -18 13
-38 19 -44 6 -6 11 -20 11 -32 0 -11 6 -29 14 -40 7 -11 16 -31 19 -45 6 -27
32 -102 46 -135 5 -11 12 -29 15 -40 6 -25 34 -104 45 -130 5 -11 12 -29 14
-40 3 -11 15 -45 27 -75 12 -30 26 -73 31 -95 6 -22 14 -44 20 -49 5 -6 9 -22
9 -37 0 -15 6 -32 14 -38 8 -6 16 -24 19 -39 7 -37 56 -181 73 -215 8 -16 14
-38 14 -50 0 -12 4 -28 9 -35 19 -30 21 25 7 157 -10 89 -17 311 -21 641 -4
278 -8 523 -10 545 -1 22 -6 199 -10 394 -8 338 -7 355 10 367 10 8 34 14 53
14 18 0 61 7 95 15 34 8 98 21 142 29 44 8 105 20 135 26 30 6 80 15 112 19
31 5 62 12 70 17 7 5 40 12 73 16 33 3 76 10 96 13 35 7 37 6 56 -36 12 -24
23 -53 26 -64 3 -11 15 -45 27 -75 12 -30 25 -66 30 -80 5 -14 18 -50 30 -80
12 -30 25 -70 30 -89 5 -18 13 -38 19 -44 6 -6 11 -20 11 -32 0 -12 7 -30 15
-41 8 -10 15 -25 15 -32 0 -8 6 -28 14 -45 8 -18 16 -41 19 -52 7 -24 34 -102
46 -130 12 -29 57 -146 85 -222 31 -87 38 -109 43 -133 3 -14 12 -34 19 -45 8
-11 14 -28 14 -38 0 -10 6 -31 14 -45 15 -30 33 -81 46 -127 11 -40 30 -94 45
-130 8 -16 16 -41 18 -55 6 -28 23 -81 42 -125 8 -16 16 -41 19 -55 4 -21 16
-69 32 -128 2 -7 8 -10 14 -7 14 8 12 84 -5 250 -8 77 -15 212 -15 300 0 88
-5 219 -10 290 -10 135 -33 843 -34 1069 l-1 129 70 18 c73 18 159 34 260 48
33 5 73 14 88 20 16 6 43 11 61 11 19 0 53 7 76 15 23 8 59 15 79 16 20 0 52
6 71 14 19 7 46 12 60 12 24 -2 25 -5 25 -57z"/>
</g>
</svg>
