<?xml version="1.0" standalone="no"?>
<!DOCTYPE svg PUBLIC "-//W3C//DTD SVG 20010904//EN"
 "http://www.w3.org/TR/2001/REC-SVG-20010904/DTD/svg10.dtd">
<svg version="1.0" xmlns="http://www.w3.org/2000/svg"
 width="675.000000pt" height="675.000000pt" viewBox="0 0 675.000000 675.000000"
 preserveAspectRatio="xMidYMid meet">
<metadata>
Created by potrace 1.10, written by Peter Selinger 2001-2011
</metadata>
<g transform="translate(0.000000,675.000000) scale(0.100000,-0.100000)"
fill="#ff4a00" stroke="none">
<path d="M3190 6736 c0 -18 -45 -26 -211 -36 -76 -4 -142 -11 -148 -14 -8 -5
-11 -286 -11 -966 0 -527 -3 -965 -6 -974 -3 -9 -12 -16 -19 -16 -7 0 -321
309 -698 686 l-685 685 -41 -25 c-22 -14 -48 -34 -58 -44 -10 -10 -47 -41 -83
-68 -84 -63 -401 -380 -464 -464 -27 -36 -58 -73 -68 -83 -10 -10 -30 -36 -44
-58 l-25 -41 685 -685 c377 -377 686 -691 686 -698 0 -7 -7 -16 -16 -19 -9 -3
-446 -6 -972 -6 -525 0 -957 -2 -960 -4 -11 -12 -41 -341 -48 -541 -4 -84 -1
-160 5 -190 6 -27 15 -115 20 -194 5 -79 13 -147 18 -152 6 -6 405 -9 965 -9
526 0 963 -3 972 -6 9 -3 16 -12 16 -19 0 -7 -309 -322 -686 -698 l-685 -686
25 -39 c13 -21 30 -45 38 -53 8 -8 40 -48 73 -89 75 -96 380 -400 465 -464 36
-27 73 -58 83 -68 10 -10 36 -30 58 -44 l40 -25 686 685 c376 377 691 686 698
686 7 0 16 -7 19 -16 3 -9 6 -447 6 -974 0 -715 3 -961 12 -966 6 -4 76 -11
156 -15 80 -5 161 -13 181 -19 47 -13 345 -13 392 0 20 6 101 14 181 19 80 4
150 11 156 15 9 5 12 251 12 966 0 527 3 965 6 974 3 9 12 16 19 16 7 0 322
-309 698 -686 l685 -685 40 24 c21 14 45 31 53 39 8 8 48 40 89 73 98 78 389
369 465 465 33 41 65 81 73 89 8 8 25 32 39 53 l24 40 -685 685 c-377 376
-686 690 -686 698 0 7 7 16 16 19 9 3 447 6 974 6 716 0 961 3 966 12 4 6 11
73 15 150 10 166 17 208 35 208 11 0 14 32 14 175 0 143 -3 175 -14 175 -18 0
-25 42 -35 208 -4 77 -11 144 -15 150 -5 9 -250 12 -966 12 -527 0 -965 3
-974 6 -9 3 -16 12 -16 19 0 8 309 322 686 698 l685 685 -25 40 c-13 21 -30
45 -38 53 -8 8 -40 48 -73 89 -78 98 -369 389 -465 465 -41 33 -81 65 -89 73
-8 8 -32 25 -53 38 l-40 25 -685 -685 c-376 -377 -691 -686 -698 -686 -7 0
-16 7 -19 16 -3 9 -6 446 -6 972 0 560 -3 959 -9 965 -5 5 -73 13 -151 18
-172 10 -210 17 -210 35 0 11 -32 14 -175 14 -143 0 -175 -3 -175 -14z m379
-2525 c11 -6 50 -11 86 -11 37 0 81 -6 98 -14 18 -8 56 -17 86 -20 30 -3 59
-10 65 -16 5 -5 21 -10 34 -10 22 0 62 -14 122 -43 13 -7 31 -26 39 -42 8 -17
18 -37 22 -46 4 -9 11 -34 15 -55 3 -22 11 -44 16 -50 5 -7 11 -36 14 -65 3
-30 12 -68 20 -86 8 -17 14 -61 14 -98 0 -36 5 -76 11 -88 16 -28 16 -376 0
-405 -6 -11 -11 -51 -11 -87 0 -37 -6 -81 -14 -98 -8 -18 -17 -56 -20 -86 -3
-29 -9 -58 -14 -65 -5 -6 -13 -28 -16 -50 -4 -21 -11 -46 -15 -55 -4 -9 -14
-29 -22 -46 -8 -16 -28 -36 -44 -44 -17 -8 -37 -18 -46 -22 -9 -4 -34 -11 -55
-15 -22 -3 -44 -11 -50 -16 -7 -5 -36 -11 -65 -14 -30 -3 -68 -12 -86 -20 -17
-8 -61 -14 -98 -14 -36 0 -76 -5 -88 -11 -29 -16 -374 -16 -404 -1 -12 7 -52
12 -88 12 -37 0 -81 6 -98 14 -18 8 -56 17 -86 20 -29 3 -58 9 -65 14 -6 5
-28 13 -50 16 -21 4 -46 11 -55 15 -81 39 -78 35 -115 123 -9 20 -16 47 -16
60 0 13 -5 29 -11 35 -5 5 -13 37 -16 69 -3 32 -11 65 -16 73 -6 7 -14 52 -18
100 -4 47 -12 111 -18 141 -12 71 -12 239 0 310 6 30 14 94 18 141 4 48 12 93
18 100 5 8 13 40 16 72 3 32 10 64 15 70 5 7 13 29 16 51 4 21 11 46 15 55 4
9 14 29 22 46 8 16 28 36 44 44 17 8 37 18 46 22 9 4 34 11 55 15 22 3 44 11
51 16 6 5 38 12 70 15 32 3 64 11 72 16 7 6 52 15 100 19 47 4 109 11 136 17
62 12 337 6 364 -8z"/>
</g>
</svg>
